<?xml version="1.0" standalone="no"?>
<!DOCTYPE svg PUBLIC "-//W3C//DTD SVG 20010904//EN"
 "http://www.w3.org/TR/2001/REC-SVG-20010904/DTD/svg10.dtd">
<svg version="1.0" xmlns="http://www.w3.org/2000/svg"
 width="2059.000000pt" height="2059.000000pt" viewBox="0 0 2059.000000 2059.000000"
 preserveAspectRatio="xMidYMid meet">
<metadata>
Created by potrace 1.14, written by Peter Selinger 2001-2017
</metadata>
<g transform="translate(0.000000,2059.000000) scale(0.100000,-0.100000)"
fill="#000000" stroke="none">
<path d="M9960 20139 c-1008 -62 -1998 -295 -2909 -685 -149 -64 -438 -198
-448 -207 -1 -2 12 -47 30 -100 l32 -97 155 74 c964 459 1985 723 3120 808
337 25 983 14 1360 -23 925 -91 1829 -329 2675 -704 252 -112 610 -295 862
-442 l41 -24 32 97 c32 94 32 98 14 111 -45 34 -378 211 -594 317 -1055 516
-2155 804 -3347 876 -198 12 -824 11 -1023 -1z"/>
<path d="M10115 19789 c-1128 -48 -2250 -327 -3256 -811 l-147 -70 45 -134 45
-133 101 51 c146 73 364 168 577 253 1927 763 4083 763 6010 0 360 -143 731
-321 1055 -505 88 -50 167 -96 177 -101 14 -8 22 10 61 125 l45 134 -152 87
c-185 105 -551 290 -749 379 -1192 534 -2492 781 -3812 725z"/>
<path d="M6142 19003 c-34 -22 -502 -523 -528 -565 -4 -5 54 31 129 80 74 50
210 136 303 192 93 56 172 104 176 108 4 4 -3 53 -15 110 l-22 103 -43 -28z"/>
<path d="M6120 18584 c-254 -154 -521 -336 -516 -353 2 -9 14 -74 26 -146 13
-71 24 -131 25 -133 2 -2 74 46 161 106 88 60 233 156 324 212 91 56 168 105
172 109 10 8 -46 274 -58 278 -5 1 -65 -32 -134 -73z"/>
<path d="M5055 18278 c-1885 -1466 -3164 -3630 -3569 -6035 -158 -938 -183
-1938 -71 -2888 75 -628 208 -1249 397 -1847 17 -54 36 -98 42 -98 11 0 168
50 174 55 2 2 -24 93 -57 202 -226 738 -352 1428 -413 2268 -16 226 -16 1007
0 1240 40 564 117 1086 233 1589 304 1314 870 2538 1663 3594 298 396 495 622
871 998 294 294 446 433 707 642 l158 127 0 128 c0 70 -1 127 -2 127 -2 -1
-61 -46 -133 -102z"/>
<path d="M5037 17815 c-233 -194 -395 -342 -627 -575 -947 -948 -1672 -2088
-2145 -3374 -653 -1776 -759 -3786 -299 -5649 65 -265 187 -682 204 -700 4 -5
99 19 211 53 473 142 1217 334 1806 464 186 41 355 78 377 82 38 7 38 7 32 43
-3 20 -6 474 -6 1009 l0 972 -411 0 c-250 0 -409 4 -407 9 2 5 37 93 78 194
l74 184 1741 7 c957 3 3536 9 5731 12 l3990 7 147 -207 146 -206 -371 0 -370
0 6 -62 c3 -35 11 -169 16 -298 18 -422 40 -893 46 -967 l6 -73 1024 0 1024 0
0 -402 c0 -222 -3 -413 -6 -424 l-6 -21 -61 19 c-93 29 -583 160 -822 220
-207 52 -210 53 -213 81 -3 27 -4 27 -77 27 -80 0 -105 6 -105 24 0 15 -82 34
-480 116 -298 61 -300 61 -300 13 0 -13 -1 -23 -3 -23 -31 0 -211 43 -221 53
-22 21 -745 139 -1236 201 -947 120 -1996 196 -2320 168 -58 -5 -110 -7 -117
-4 -7 2 -22 34 -34 70 -12 37 -46 114 -75 172 -197 387 -554 626 -1037 695
-138 20 -197 19 -322 -5 -424 -82 -752 -308 -923 -637 -42 -81 -112 -276 -112
-313 0 -24 -7 -25 -265 -45 -785 -63 -1826 -204 -2660 -361 -343 -65 -721
-143 -753 -155 -62 -25 11 -18 240 25 978 182 1965 314 2968 396 687 56 1549
90 2265 90 1470 -1 2747 -101 4165 -326 728 -115 1698 -320 2360 -498 558
-149 1256 -362 1678 -510 l153 -54 9 23 c20 52 132 411 169 540 399 1400 474
2928 215 4380 -104 583 -276 1200 -490 1753 -61 159 -194 471 -203 476 -4 3
-23 -43 -42 -101 -25 -77 -39 -108 -54 -114 -11 -4 -76 -15 -144 -23 -68 -9
-125 -17 -127 -18 -1 -2 -21 -62 -43 -135 l-42 -132 -77 -16 c-42 -9 -82 -18
-89 -20 -6 -2 -38 19 -70 48 -33 29 -75 66 -96 84 l-36 32 14 40 c11 31 11 41
2 41 -28 -1 -140 -29 -147 -36 -4 -5 -27 -67 -50 -139 -24 -71 -45 -135 -47
-141 -2 -6 57 -57 132 -113 105 -79 135 -106 130 -119 -3 -9 -285 -827 -626
-1816 -340 -990 -620 -1801 -622 -1802 -4 -4 20 -18 -619 374 -280 171 -508
308 -508 304 0 -4 16 -25 35 -46 30 -34 42 -55 33 -56 -26 -4 -11393 -18
-11397 -15 -2 3 12 42 31 88 20 45 196 476 393 957 254 624 363 881 380 895
13 11 136 76 272 144 l248 123 -2 127 c-2 69 -10 572 -18 1116 -8 545 -18
1112 -21 1262 l-6 272 -62 5 c-33 3 -153 13 -266 21 -113 9 -241 22 -286 30
-229 42 -486 149 -761 318 l-131 80 106 140 c117 154 270 339 426 517 152 174
589 606 779 770 l167 145 0 167 c0 92 -3 169 -7 171 -5 3 -75 -51 -156 -118z"/>
<path d="M14500 17466 l35 -49 843 -282 c831 -279 843 -283 884 -270 l42 12
-90 30 c-120 41 -1704 590 -1729 599 -16 6 -13 -2 15 -40z"/>
<path d="M17672 16695 c-40 -96 -71 -179 -67 -185 3 -5 27 -24 53 -42 36 -25
67 -35 144 -48 54 -9 98 -16 98 -15 0 1 -27 21 -61 45 -33 23 -57 45 -54 48 3
4 47 21 96 39 71 25 95 29 109 21 9 -6 29 -8 45 -4 28 7 26 10 -126 162 -84
85 -156 154 -159 154 -3 0 -38 -79 -78 -175z"/>
<path d="M12753 16468 c89 -225 101 -250 125 -259 56 -21 64 -18 84 44 11 31
25 57 32 57 6 0 238 -76 515 -170 276 -93 504 -170 506 -170 2 0 -5 22 -17 49
l-20 50 -92 31 c-229 78 -1130 380 -1134 380 -2 0 -2 -6 1 -12z"/>
<path d="M17995 15780 l-27 -80 67 -110 c36 -60 68 -110 70 -110 2 0 20 51 41
113 20 61 39 117 41 123 4 10 -112 113 -154 137 -7 5 -20 -19 -38 -73z"/>
<path d="M17882 15441 c-15 -44 -29 -72 -40 -75 -9 -2 -53 -12 -97 -21 -44 -9
-87 -18 -96 -21 -11 -3 -56 -112 -139 -340 -67 -184 -121 -336 -119 -338 6 -6
443 56 451 63 10 9 198 558 198 577 0 17 -119 224 -129 224 -4 0 -17 -31 -29
-69z"/>
<path d="M15677 15408 c-8 -18 -37 -104 -66 -191 -33 -98 -57 -157 -65 -154
-186 70 -300 107 -306 100 -8 -9 -140 -375 -140 -389 0 -5 72 -33 160 -62 88
-30 160 -57 160 -61 0 -4 -18 -60 -39 -124 l-40 -118 25 -9 c14 -6 27 -10 29
-10 2 0 100 -60 218 -134 l215 -134 123 367 c67 201 123 367 124 369 3 3 167
32 185 32 9 0 57 -34 108 -75 58 -47 94 -71 97 -63 74 212 92 268 86 268 -4 0
-47 -13 -96 -30 -84 -29 -90 -29 -114 -13 -14 9 -151 107 -306 217 -154 111
-294 212 -312 224 l-32 23 -14 -33z"/>
<path d="M6066 15363 c3 -16 72 -471 154 -1011 81 -541 151 -986 153 -988 3
-3 113 49 246 115 l241 121 208 0 209 0 -116 580 -116 580 -200 118 c-284 167
-403 244 -540 347 -134 100 -226 165 -237 165 -4 0 -5 -12 -2 -27z"/>
<path d="M18399 15152 l-43 -131 96 -198 c790 -1623 1108 -3428 927 -5263 -50
-512 -146 -1043 -279 -1543 -54 -200 -167 -574 -200 -658 -11 -27 -20 -56 -20
-63 0 -12 177 -84 184 -75 6 8 128 393 170 539 441 1522 510 3196 196 4772
-184 923 -510 1850 -928 2637 l-60 113 -43 -130z"/>
<path d="M18290 14805 c0 -8 4 -15 10 -15 5 0 7 7 4 15 -4 8 -8 15 -10 15 -2
0 -4 -7 -4 -15z"/>
<path d="M11862 14169 c-112 -38 -220 -90 -314 -152 -168 -110 -247 -205 -323
-392 l-45 -110 243 -7 c133 -5 319 -7 412 -5 l170 2 118 339 c64 186 116 340
115 342 -2 1 -70 4 -151 6 -137 3 -153 1 -225 -23z"/>
<path d="M8322 14089 c3 -8 43 -127 88 -265 l84 -251 224 -6 c124 -4 297 -7
386 -7 l160 0 -90 56 c-49 31 -168 102 -264 158 -156 91 -254 146 -519 288
-41 22 -72 34 -69 27z"/>
<path d="M5362 13510 c-45 -60 -78 -110 -73 -110 5 0 42 43 82 95 40 53 76 94
80 93 4 -2 35 -41 68 -88 l61 -85 0 -233 c0 -153 3 -231 10 -227 6 4 10 88 10
218 0 122 4 206 9 198 5 -7 11 -9 14 -4 6 9 -161 252 -173 253 -3 0 -42 -49
-88 -110z"/>
<path d="M5650 9400 l0 -290 75 0 75 0 0 290 0 290 -75 0 -75 0 0 -290z"/>
<path d="M13872 9403 l3 -288 73 -3 72 -3 0 291 0 290 -75 0 -75 0 2 -287z"/>
<path d="M9710 8373 c-2769 -42 -5595 -534 -8270 -1438 -327 -111 -891 -314
-904 -325 -4 -5 -4 -15 0 -23 7 -12 41 -1 189 58 1172 471 2848 936 4428 1230
1314 244 2541 384 3997 456 343 17 1567 23 1965 10 3077 -102 5906 -685 8641
-1782 150 -60 277 -109 283 -109 6 0 11 8 11 18 0 20 -62 49 -410 189 -856
347 -1900 677 -2963 938 -2262 554 -4591 814 -6967 778z"/>
<path d="M8425 7834 c-58 -85 -109 -145 -194 -226 -63 -60 -133 -119 -154
-129 l-38 -20 7 -72 c4 -40 9 -74 11 -77 3 -3 31 -3 64 -2 54 4 60 2 68 -20 8
-24 26 -176 36 -328 31 -422 76 -552 220 -628 41 -22 63 -27 125 -27 81 1 122
13 186 56 40 27 41 29 48 101 3 40 11 108 18 150 6 43 9 81 5 84 -3 4 -24 -1
-47 -10 -62 -25 -94 -21 -124 14 -14 17 -28 45 -31 63 -22 121 -60 520 -52
541 8 21 114 22 164 1 20 -8 38 -13 40 -11 7 6 -19 290 -27 299 -3 4 -31 -4
-61 -17 -30 -13 -72 -26 -93 -28 -38 -3 -40 -2 -47 32 -4 19 -12 107 -19 195
-7 88 -15 163 -19 168 -4 4 -43 -45 -86 -109z"/>
<path d="M11410 7911 c-5 -11 -10 -31 -10 -45 0 -13 -11 -87 -25 -162 -14 -76
-25 -149 -23 -161 l3 -23 52 24 c71 33 188 58 258 54 l60 -3 -3 -85 c-1 -47
-9 -157 -17 -245 -8 -88 -22 -239 -30 -335 -25 -300 -70 -498 -121 -541 -8 -6
-14 -15 -14 -19 0 -4 46 -10 103 -13 56 -4 165 -12 242 -18 197 -17 190 -17
188 6 0 11 -9 40 -19 65 -16 39 -19 77 -19 300 0 140 5 302 12 360 7 58 19
175 28 260 8 85 18 175 21 199 l6 43 46 -7 c74 -11 172 -44 241 -81 35 -19 66
-33 68 -30 3 2 1 90 -3 196 -6 168 -9 192 -25 200 -9 6 -107 15 -216 20 -109
6 -205 13 -214 16 -18 5 -497 44 -546 44 -22 0 -36 -6 -43 -19z"/>
<path d="M9025 7910 c-82 -4 -153 -8 -157 -9 -12 -2 -10 -31 2 -31 13 0 35
-46 44 -90 7 -36 14 -141 41 -605 8 -143 17 -278 20 -300 3 -22 6 -124 6 -227
1 -171 -1 -191 -20 -230 -11 -23 -17 -46 -13 -50 5 -5 62 -4 128 1 65 6 173
12 238 15 124 6 155 15 116 36 -12 6 -33 36 -46 65 -27 58 -32 103 -58 500 -9
121 -20 292 -26 380 -6 88 -14 248 -18 355 l-7 195 -50 1 c-27 0 -117 -2 -200
-6z"/>
<path d="M7610 7754 c-36 -59 -97 -143 -136 -188 -66 -75 -175 -176 -219 -201
-16 -10 -17 -20 -11 -88 l8 -77 63 6 c61 6 65 6 74 -17 10 -25 32 -163 51
-324 38 -322 63 -429 120 -518 31 -49 96 -98 158 -118 56 -19 172 -6 229 26
83 45 79 38 92 180 19 196 20 180 -9 179 -14 -1 -39 -7 -57 -15 -40 -16 -78
-5 -105 31 -11 15 -26 70 -38 140 -32 183 -63 438 -56 456 5 14 17 15 79 11
39 -3 85 -9 101 -13 l29 -7 -8 59 c-4 32 -13 100 -19 149 -14 102 -10 100
-101 61 -75 -32 -103 -33 -114 -3 -5 12 -17 100 -28 196 -10 96 -23 176 -28
177 -6 2 -39 -44 -75 -102z"/>
<path d="M9878 7617 c-107 -41 -200 -116 -271 -221 -147 -218 -142 -595 12
-827 53 -80 79 -101 186 -150 65 -30 80 -32 201 -37 118 -4 141 -2 232 21 55
15 141 45 190 67 49 22 97 40 106 40 9 0 16 2 16 5 0 3 -29 65 -65 140 -36 74
-65 139 -65 144 0 4 -7 14 -16 22 -13 11 -22 6 -62 -38 -26 -28 -67 -65 -92
-82 -44 -30 -129 -54 -166 -46 -10 2 -31 6 -46 10 -40 8 -95 61 -124 117 -26
52 -47 139 -36 149 4 4 150 9 325 12 210 3 322 8 331 16 38 31 -10 347 -68
446 -38 65 -128 142 -210 181 -71 34 -81 36 -208 40 -98 3 -143 1 -170 -9z
m250 -285 c35 -41 67 -138 53 -160 -3 -5 -72 -12 -154 -16 -119 -5 -149 -4
-153 7 -8 22 35 126 69 164 45 51 82 65 127 47 19 -8 45 -27 58 -42z"/>
<path d="M12590 7480 c0 -6 9 -23 20 -38 25 -34 39 -138 29 -224 -4 -34 -23
-189 -43 -343 -20 -154 -42 -318 -47 -365 -11 -90 -39 -155 -74 -174 -62 -34
-39 -43 168 -67 95 -11 196 -24 226 -29 60 -11 131 -13 131 -5 0 3 -12 16 -26
29 -19 15 -31 42 -43 90 -18 73 -15 122 33 491 9 66 16 134 16 152 0 44 20 60
89 68 83 10 154 -13 225 -70 l55 -45 14 22 c11 18 57 335 61 423 3 58 -244 4
-372 -81 -35 -24 -68 -42 -71 -39 -4 2 -13 30 -20 62 -13 57 -36 113 -47 113
-12 0 -261 30 -291 35 -21 4 -33 2 -33 -5z"/>
<path d="M14822 7470 c-38 -24 -65 -79 -56 -115 11 -43 61 -81 144 -109 201
-66 340 -34 340 80 0 83 -130 153 -300 161 -84 4 -99 2 -128 -17z"/>
<path d="M5395 7366 c-38 -8 -82 -19 -97 -25 -15 -6 -76 -22 -135 -36 -60 -14
-128 -32 -153 -40 -25 -8 -87 -24 -139 -35 -52 -11 -96 -22 -99 -24 -2 -3 12
-21 32 -41 49 -49 80 -114 116 -242 117 -422 224 -923 224 -1054 0 -65 -4 -93
-17 -112 -38 -59 -26 -59 181 -8 86 22 215 51 285 66 235 48 386 111 456 191
86 97 116 189 109 324 -7 108 -30 163 -101 234 -50 50 -139 106 -169 106 -37
1 -39 16 -8 81 38 82 51 153 45 243 -17 220 -164 370 -376 381 -49 3 -113 -1
-154 -9z m96 -306 c46 -13 68 -37 89 -101 41 -120 -31 -207 -202 -243 -26 -6
-28 -3 -43 47 -8 29 -22 87 -30 128 -8 42 -20 88 -26 103 -15 32 -8 40 46 60
47 17 116 20 166 6z m167 -611 c52 -18 112 -114 112 -179 0 -55 -26 -89 -93
-121 -34 -16 -74 -29 -89 -29 -15 0 -39 -5 -54 -10 -52 -20 -58 -11 -94 150
-18 83 -30 153 -26 158 12 12 128 40 172 41 23 1 55 -4 72 -10z"/>
<path d="M15446 7298 c16 -47 4 -129 -54 -353 -33 -126 -87 -338 -121 -470
-112 -431 -146 -533 -197 -586 -27 -28 -32 -38 -22 -46 7 -5 65 -22 128 -37
63 -16 160 -41 215 -57 55 -16 110 -29 123 -29 l24 0 -22 34 c-28 46 -29 138
-1 236 11 41 29 113 40 160 10 47 32 135 48 195 17 61 43 162 57 225 15 63 54
212 88 330 84 301 88 314 78 324 -4 4 -41 16 -82 26 -40 10 -113 30 -163 44
-49 14 -103 26 -119 26 -25 0 -27 -3 -20 -22z"/>
<path d="M6614 7295 c-188 -41 -335 -205 -381 -424 -20 -99 -12 -275 17 -381
43 -150 154 -322 243 -374 23 -14 78 -35 122 -47 138 -37 296 -17 460 60 45
21 117 61 160 90 43 28 86 51 96 51 11 0 19 3 19 8 0 4 -24 39 -53 77 -28 39
-71 100 -95 137 -57 87 -77 94 -97 30 -3 -12 -34 -51 -68 -86 -50 -52 -72 -67
-116 -80 -30 -9 -68 -16 -85 -16 -51 0 -114 38 -155 94 -34 46 -78 143 -70
150 6 5 258 53 429 81 173 29 216 40 223 59 7 18 -21 173 -38 210 -8 17 -23
55 -34 83 -38 98 -86 156 -180 218 -95 63 -265 89 -397 60z m151 -255 c33 -13
81 -72 100 -123 10 -26 15 -51 11 -55 -14 -13 -291 -61 -301 -51 -13 13 9 112
38 168 14 27 37 52 58 63 32 17 44 17 94 -2z"/>
<path d="M13725 7300 c-33 -4 -84 -5 -112 -2 -33 3 -53 1 -53 -5 0 -11 16 -53
52 -133 82 -185 109 -224 130 -186 11 20 69 50 126 65 35 10 53 9 97 -3 92
-27 117 -76 98 -189 -5 -33 -9 -38 -27 -33 -170 49 -244 59 -343 45 -42 -6
-95 -20 -116 -31 -159 -81 -246 -364 -166 -538 40 -85 80 -125 159 -156 61
-24 78 -26 162 -22 87 3 99 7 171 46 43 23 80 42 81 42 2 0 9 -25 16 -56 21
-85 28 -90 165 -115 153 -27 195 -33 195 -27 0 2 -9 21 -20 43 -37 72 -31 128
61 615 27 139 22 319 -9 399 -47 119 -118 183 -251 225 -73 23 -97 26 -219 25
-75 -1 -164 -5 -197 -9z m212 -687 l74 -17 -6 -46 c-4 -25 -12 -67 -19 -95
-15 -57 -25 -62 -136 -64 -83 -1 -124 21 -134 72 -8 43 0 81 26 124 28 47 76
54 195 26z"/>
<path d="M10727 7188 c-4 -29 -7 -97 -7 -150 0 -93 1 -98 23 -102 30 -7 618
-22 623 -17 2 2 4 70 4 150 l0 146 -67 -3 c-80 -3 -537 16 -557 24 -9 4 -15
-9 -19 -48z"/>
<path d="M14718 7135 c-3 -4 0 -22 8 -40 8 -19 14 -48 14 -65 0 -34 -108 -539
-170 -795 -36 -146 -42 -163 -73 -191 -18 -17 -42 -36 -53 -42 -10 -6 -15 -14
-11 -18 6 -7 425 -105 515 -121 38 -7 41 5 11 46 -36 49 -40 96 -19 206 43
223 164 739 204 867 11 36 12 50 3 61 -7 8 -86 31 -177 52 -177 40 -241 50
-252 40z"/>
<path d="M10060 5813 c-1493 -21 -3041 -224 -4525 -594 -842 -210 -1735 -493
-2485 -787 -41 -16 -84 -32 -94 -36 -19 -7 -19 -7 0 -26 19 -19 22 -18 224 35
113 30 212 55 220 54 8 0 77 -75 152 -167 493 -603 1081 -1163 1693 -1611
1027 -753 2123 -1251 3382 -1536 15 -4 26 -19 39 -57 97 -298 327 -583 623
-773 231 -149 556 -259 866 -295 129 -14 442 -12 565 4 403 55 765 208 1028
436 173 149 321 353 399 550 20 52 38 96 39 98 1 2 91 23 201 48 688 153 1394
404 2024 719 1131 567 2122 1358 2972 2373 70 83 133 152 140 152 7 0 79 -20
162 -44 82 -25 151 -43 152 -42 4 4 -369 161 -502 212 -486 185 -853 311
-1270 439 -1496 457 -3030 729 -4615 820 -258 15 -1045 37 -1165 33 -33 -2
-134 -4 -225 -5z m-6112 -1455 c385 -445 764 -812 1202 -1163 977 -783 2103
-1344 3291 -1640 l146 -37 6 -76 c3 -42 5 -77 4 -78 -1 -1 -78 18 -172 41
-1652 413 -3138 1296 -4328 2570 -225 241 -460 520 -454 539 4 12 129 46 138
37 3 -3 78 -90 167 -193z m13278 125 c35 -9 64 -20 64 -23 -1 -9 -113 -145
-246 -298 -170 -195 -618 -643 -822 -821 -1054 -920 -2242 -1556 -3557 -1905
-201 -53 -413 -101 -419 -95 -2 2 -2 36 1 75 l6 72 196 47 c1188 287 2278 813
3256 1569 467 361 870 743 1284 1216 132 150 159 179 169 180 2 0 33 -8 68
-17z m-4946 -105 c0 -246 -73 -2940 -80 -2992 -90 -614 -506 -1062 -1160
-1251 -220 -63 -345 -79 -615 -79 -258 0 -355 10 -548 59 -149 38 -238 70
-375 135 -502 241 -805 650 -861 1166 -6 54 -25 677 -41 1384 -16 707 -32
1360 -35 1453 l-7 167 1861 0 1861 0 0 -42z"/>
<path d="M9870 4136 c0 -2 32 -29 70 -60 86 -70 163 -177 190 -264 19 -61 20
-94 20 -633 l0 -569 -499 0 c-561 0 -563 0 -675 75 -51 33 -81 64 -180 180
l-25 30 0 -560 0 -560 27 35 c56 73 153 166 204 197 101 61 121 63 660 63
l488 0 0 -528 c0 -575 -1 -592 -58 -695 -14 -27 -53 -73 -85 -102 l-59 -54 44
-22 c166 -84 311 -238 396 -420 15 -32 29 -59 32 -59 3 0 18 26 34 57 84 172
219 323 363 403 l79 45 -49 38 c-54 43 -96 103 -130 187 -22 54 -22 61 -25
603 l-3 548 538 -3 c525 -3 539 -4 584 -24 63 -29 117 -80 191 -181 l63 -84 3
275 c1 151 1 401 0 556 l-3 281 -74 -93 c-40 -51 -93 -108 -117 -126 -80 -62
-84 -62 -661 -62 l-523 0 0 558 c0 604 1 614 56 725 17 33 62 87 126 150 l99
97 -550 0 c-303 0 -551 -2 -551 -4z"/>
</g>
</svg>
